# xmcd
#
# Track frame offsets:
# 150
# 21106
# 43819
# 74924
# 101840
# 130097
# 156645
# 178873
# 206759
# 230986
# 259495
# 288163
#
# Disc length: 4230 seconds
#
# Revision: 0
# Processed by: cddbd v1.4PL0 Copyright (c) Steve Scherf et al.
# Submitted via: Audion 3.0.2 (http://www.panic.com/audion/)
#
DISCID=c710840c
DTITLE=harry morse project - love bombing
DYEAR=1900
DGENRE=
TTITLE0=love bombing
TTITLE1=big baby bounce (feat.sacha)
TTITLE2=brazilou (hmp mix)
TTITLE3=gone with the weed
TTITLE4=something that reloads itself
TTITLE5=moba
TTITLE6=laziness
TTITLE7=meet u sometimes (feat.sacha)
TTITLE8=such a modern way to think
TTITLE9=no belly dance
TTITLE10=i'm on fire
TTITLE11=so...rest!
EXTD=
EXTT0=
EXTT1=
EXTT2=
EXTT3=
EXTT4=
EXTT5=
EXTT6=
EXTT7=
EXTT8=
EXTT9=
EXTT10=
EXTT11=
PLAYORDER=
